<?xml version="1.0" standalone="no"?>
<!DOCTYPE svg PUBLIC "-//W3C//DTD SVG 20010904//EN"
 "http://www.w3.org/TR/2001/REC-SVG-20010904/DTD/svg10.dtd">
<svg version="1.0" xmlns="http://www.w3.org/2000/svg"
 width="300.000000pt" height="80.000000pt" viewBox="0 0 300.000000 80.000000"
 preserveAspectRatio="xMidYMid meet">
<metadata>
Created by potrace 1.10, written by Peter Selinger 2001-2011
</metadata>
<g transform="translate(0.000000,80.000000) scale(0.100000,-0.100000)"
fill="#000000" stroke="none">
<path d="M1210 390 l0 -240 780 0 780 0 0 240 0 240 -780 0 -780 0 0 -240z
m1530 -5 l0 -205 -750 0 -750 0 0 205 0 205 750 0 750 0 0 -205z"/>
<path d="M1376 502 c-25 -28 -20 -229 7 -246 24 -15 50 3 58 40 5 24 7 26 14
11 4 -10 16 -22 26 -28 15 -8 24 -5 43 16 l25 26 3 -27 c4 -35 31 -53 56 -38
25 16 31 218 6 245 -23 25 -48 10 -87 -53 -27 -44 -33 -48 -42 -33 -21 36 -70
99 -81 102 -6 2 -18 -5 -28 -15z m75 -86 l44 -74 43 74 c24 41 49 74 56 74 7
0 11 -33 11 -105 0 -87 -3 -105 -15 -105 -12 0 -14 14 -12 77 l3 78 -41 -67
c-23 -38 -43 -68 -45 -68 -2 0 -22 30 -45 68 l-41 67 3 -78 c2 -63 0 -77 -12
-77 -13 0 -15 17 -13 102 1 57 3 104 3 106 0 1 4 2 9 2 5 0 29 -33 52 -74z"/>
<path d="M1767 502 c-20 -22 -97 -194 -97 -216 0 -9 12 -22 26 -28 24 -11 29
-10 48 15 29 36 74 36 106 2 28 -30 55 -32 70 -5 8 15 2 38 -31 112 -58 131
-87 159 -122 120z m62 -54 c10 -24 32 -71 48 -106 26 -53 28 -62 13 -62 -9 0
-22 11 -28 25 -10 22 -18 25 -65 25 -48 0 -55 -3 -65 -25 -6 -14 -18 -25 -27
-25 -12 0 -10 11 11 58 14 31 35 78 46 105 11 26 27 47 35 47 7 0 22 -19 32
-42z"/>
<path d="M1774 402 l-21 -49 44 1 c23 1 43 2 43 2 0 5 -41 94 -43 94 -2 0 -12
-22 -23 -48z"/>
<path d="M1998 504 c-48 -26 -62 -79 -32 -122 15 -21 15 -25 0 -41 -19 -21
-21 -55 -3 -69 21 -18 81 -29 116 -21 44 9 61 28 68 76 4 32 1 43 -20 63 -24
24 -25 25 -6 38 27 18 24 47 -7 71 -31 24 -78 26 -116 5z m97 -24 c39 -15 22
-28 -28 -23 -77 9 -90 -47 -14 -61 71 -13 97 -56 57 -96 -24 -24 -96 -27 -125
-7 -30 23 -10 38 26 20 39 -20 84 -8 84 22 0 14 -12 22 -45 32 -42 12 -80 43
-80 65 0 5 11 20 25 33 26 27 57 31 100 15z"/>
<path d="M2187 502 c-31 -34 -14 -72 30 -72 21 0 22 -4 25 -81 2 -65 7 -84 21
-93 12 -8 22 -8 35 0 13 9 18 28 20 93 3 77 4 81 25 81 45 0 62 43 29 73 -28
25 -163 24 -185 -1z m183 -27 c0 -11 -11 -15 -37 -15 l-38 0 3 -90 c3 -82 2
-90 -15 -90 -16 0 -18 8 -15 90 l3 90 -40 0 c-38 0 -50 8 -34 23 3 4 44 7 90
7 67 0 83 -3 83 -15z"/>
<path d="M2446 507 c-14 -10 -16 -29 -14 -126 3 -96 6 -116 21 -125 22 -14 51
3 55 33 5 30 24 26 51 -10 38 -51 101 -21 72 34 -10 18 -10 30 -2 45 6 11 11
38 11 59 0 31 -7 46 -30 68 -26 25 -40 30 -89 32 -34 1 -65 -3 -75 -10z m129
-31 c52 -22 60 -92 14 -117 -19 -10 -19 -11 7 -42 18 -22 22 -33 14 -35 -8 -3
-25 9 -39 27 -20 23 -34 31 -58 31 -30 0 -33 -3 -33 -30 0 -20 -5 -30 -15 -30
-12 0 -15 18 -15 105 l0 105 45 0 c25 0 61 -6 80 -14z"/>
<path d="M2480 415 l0 -45 43 0 c48 0 67 13 67 47 0 27 -27 43 -74 43 -36 0
-36 0 -36 -45z m64 9 c25 -9 19 -24 -9 -24 -16 0 -25 6 -25 15 0 16 9 19 34 9z"/>
<path d="M250 475 c0 -11 11 -15 38 -15 l37 0 -3 -90 c-3 -77 -1 -90 12 -90
13 0 16 15 16 90 l0 90 40 0 c31 0 38 3 34 15 -5 12 -25 15 -90 15 -68 0 -84
-3 -84 -15z"/>
<path d="M552 443 c-11 -27 -32 -74 -46 -105 -21 -47 -23 -58 -11 -58 9 0 21
11 27 25 10 22 17 25 69 25 52 0 57 -2 63 -25 4 -15 13 -25 25 -25 16 0 15 6
-12 62 -16 35 -38 82 -48 106 -10 23 -25 42 -32 42 -8 0 -23 -21 -35 -47z m58
-39 c11 -26 20 -48 20 -50 0 -2 -20 -4 -44 -4 l-45 0 21 50 c11 28 22 50 24
50 2 0 12 -21 24 -46z"/>
<path d="M803 480 c-12 -5 -27 -18 -33 -30 -17 -32 7 -61 66 -80 36 -12 49
-22 49 -36 0 -29 -45 -40 -84 -21 -21 10 -33 12 -37 5 -11 -18 27 -38 73 -38
45 0 83 25 83 55 0 24 -36 53 -74 60 -78 15 -68 71 11 62 50 -5 67 8 28 23
-31 12 -52 12 -82 0z"/>
<path d="M1020 488 c-1 -2 -2 -49 -3 -106 -2 -94 0 -102 17 -102 14 0 17 5 13
22 -4 15 1 30 15 45 l22 23 41 -46 c59 -68 79 -53 21 16 l-45 55 47 48 c25 26
40 47 32 47 -8 0 -43 -28 -77 -62 l-63 -63 6 63 c6 53 5 62 -10 62 -9 0 -16
-1 -16 -2z"/>
</g>
</svg>
