<?xml version="1.0" standalone="no"?>
<!DOCTYPE svg PUBLIC "-//W3C//DTD SVG 20010904//EN"
 "http://www.w3.org/TR/2001/REC-SVG-20010904/DTD/svg10.dtd">
<svg version="1.0" xmlns="http://www.w3.org/2000/svg"
 width="300.000000pt" height="300.000000pt" viewBox="0 0 300.000000 300.000000"
 preserveAspectRatio="xMidYMid meet">
<metadata>
Created by potrace 1.10, written by Peter Selinger 2001-2011
</metadata>
<g transform="translate(0.000000,300.000000) scale(0.100000,-0.100000)"
fill="#000000" stroke="none">
<path d="M1140 1503 l0 -283 928 0 927 0 0 280 0 280 -928 2 -927 3 0 -282z
m1830 -3 l0 -250 -900 0 -900 0 0 250 0 250 900 0 900 0 0 -250z"/>
<path d="M1337 1632 c-14 -15 -17 -41 -17 -139 0 -103 3 -122 18 -136 10 -10
23 -17 29 -17 20 0 43 37 43 71 l1 34 15 -27 c8 -15 24 -33 36 -39 19 -10 25
-8 50 22 28 33 28 33 28 8 0 -33 26 -69 50 -69 40 0 52 40 48 164 -2 92 -6
119 -20 132 -26 26 -60 5 -97 -60 -18 -31 -36 -58 -41 -61 -4 -3 -20 16 -35
42 -33 57 -64 93 -80 93 -7 0 -19 -8 -28 -18z m88 -96 c28 -46 53 -82 56 -80
3 2 27 39 53 84 66 115 76 109 76 -45 0 -120 -1 -125 -21 -125 -20 0 -21 4
-17 90 1 50 2 90 1 90 -1 0 -21 -34 -45 -75 -23 -41 -46 -75 -50 -75 -4 0 -28
35 -53 77 l-45 78 0 -93 c0 -75 -3 -92 -15 -92 -13 0 -15 21 -15 125 0 95 3
125 13 125 7 0 35 -38 62 -84z"/>
<path d="M1802 1630 c-21 -22 -112 -227 -112 -250 0 -46 51 -52 82 -10 19 26
28 30 69 30 39 0 49 -4 54 -20 13 -42 77 -50 90 -11 6 19 -85 231 -113 264
-20 23 -47 22 -70 -3z m110 -135 c49 -110 54 -125 37 -125 -12 0 -24 12 -32
32 -12 30 -14 31 -80 32 l-67 1 -11 -32 c-7 -22 -17 -33 -30 -33 -10 0 -19 2
-19 4 0 2 18 42 39 88 22 47 47 102 55 122 27 64 45 49 108 -89z"/>
<path d="M1808 1520 l-26 -60 54 0 c30 0 54 2 54 4 0 5 -51 116 -53 116 -1 0
-14 -27 -29 -60z"/>
<path d="M2090 1643 c-28 -10 -59 -45 -65 -74 -12 -54 26 -98 109 -124 10 -3
16 -8 13 -11 -3 -4 -20 -1 -38 5 -49 17 -68 13 -81 -14 -10 -23 -8 -29 15 -52
21 -21 38 -28 86 -31 58 -4 62 -3 96 31 45 45 47 86 6 128 -16 16 -44 32 -61
35 -32 7 -52 24 -26 24 8 0 27 -5 43 -11 24 -9 30 -7 45 11 23 29 23 36 -7 65
-19 20 -34 25 -72 24 -26 0 -55 -3 -63 -6z m108 -29 c13 -4 22 -14 22 -26 0
-15 -4 -18 -17 -12 -38 16 -90 16 -106 -1 -26 -25 -6 -50 50 -64 59 -15 83
-36 83 -72 0 -36 -41 -69 -87 -69 -49 0 -104 25 -97 44 7 19 5 19 40 1 37 -19
75 -19 100 -1 29 22 8 48 -57 69 -82 26 -101 66 -54 112 24 25 72 32 123 19z"/>
<path d="M2302 1638 c-30 -30 1 -88 46 -88 21 0 22 -4 22 -88 0 -73 3 -92 18
-105 24 -22 35 -21 55 1 13 14 17 39 17 105 0 85 1 87 23 87 44 0 74 59 45 88
-8 8 -48 12 -113 12 -65 0 -105 -4 -113 -12z m218 -33 c0 -11 -12 -15 -45 -15
l-45 0 0 -110 c0 -91 -3 -110 -15 -110 -12 0 -15 19 -15 110 l0 110 -45 0
c-33 0 -45 4 -45 15 0 12 18 15 105 15 87 0 105 -3 105 -15z"/>
<path d="M2607 1632 c-14 -15 -17 -41 -17 -139 0 -106 2 -122 19 -137 28 -25
54 -16 66 22 12 42 44 43 68 2 20 -34 60 -48 82 -30 19 16 19 35 -2 66 -15 24
-15 27 0 54 9 15 17 46 17 67 0 75 -51 113 -153 113 -49 0 -68 -4 -80 -18z
m189 -45 c32 -37 30 -72 -4 -107 l-28 -28 28 -33 c33 -40 34 -49 9 -49 -10 0
-30 17 -45 40 -24 36 -31 40 -67 40 l-42 0 7 -40 c6 -36 4 -40 -14 -40 -19 0
-20 6 -20 126 l0 126 76 -4 c69 -3 79 -6 100 -31z"/>
<path d="M2650 1535 l0 -55 46 0 c61 0 84 14 84 50 0 38 -32 60 -87 60 l-43 0
0 -55z m98 -2 c-2 -11 -14 -19 -31 -21 -22 -3 -27 1 -27 17 0 17 6 21 31 21
24 0 30 -4 27 -17z"/>
<path d="M0 1605 c0 -11 12 -15 46 -15 l46 0 -4 -110 c-3 -100 -2 -110 14
-110 16 0 18 12 18 110 l0 110 43 0 c32 0 44 4 44 15 0 12 -18 15 -104 15 -85
0 -103 -3 -103 -15z"/>
<path d="M371 1598 c-5 -13 -30 -67 -55 -122 -25 -54 -46 -100 -46 -102 0 -2
8 -4 18 -4 11 0 23 13 31 35 l12 35 65 0 c65 0 65 0 80 -35 9 -23 21 -35 33
-35 17 0 12 16 -37 125 -59 129 -82 152 -101 103z m53 -74 c14 -31 26 -58 26
-60 0 -2 -24 -4 -54 -4 l-54 0 26 60 c15 33 28 60 29 60 1 0 13 -25 27 -56z"/>
<path d="M635 1595 c-47 -46 -28 -86 54 -112 65 -21 86 -47 57 -69 -25 -18
-77 -18 -102 1 -24 19 -31 18 -38 -1 -7 -19 48 -44 97 -44 46 0 87 33 87 69 0
36 -24 57 -83 72 -56 14 -76 39 -50 64 16 17 68 17 106 1 13 -6 17 -3 17 12 0
40 -107 45 -145 7z"/>
<path d="M910 1495 c0 -118 1 -125 20 -125 16 0 19 5 13 30 -4 24 0 37 17 55
13 14 26 25 29 25 4 0 26 -25 50 -55 25 -31 52 -55 62 -55 11 0 19 3 19 6 0 3
-25 34 -55 68 l-54 62 56 57 c49 50 53 57 33 57 -16 0 -45 -23 -92 -72 l-69
-73 3 73 c3 64 2 72 -14 72 -16 0 -18 -12 -18 -125z"/>
</g>
</svg>
